<svg width="580" height="346" viewBox="0 0 580 346" fill="none" xmlns="http://www.w3.org/2000/svg">
<g opacity="0.6">
<path d="M163.954 282.571H149.464L236.408 195.626H250.899L163.954 282.571Z" fill="#FEE94E"/>
<path d="M250.899 195.626H236.409L229.163 202.871H243.654L250.899 195.626Z" fill="#FFBB33"/>
<path d="M381.316 282.571H395.807L308.862 195.626H294.372L381.316 282.571Z" fill="#FEE94E"/>
<path d="M279.881 282.571V7.24541L272.635 0L265.39 7.24541V282.571H279.881Z" fill="#FFBB33"/>
<path d="M294.372 195.626H308.863L316.108 202.871H301.617L294.372 195.626Z" fill="#FFBB33"/>
<path d="M105.991 21.7362H453.771V50.7178L439.28 65.2086L453.771 79.6994V195.626H163.954L149.464 181.135L134.973 195.626H105.991V21.7362Z" fill="white"/>
<rect x="272.636" y="38.6422" width="173.89" height="152.153" fill="#FFF8C6"/>
<path d="M113.237 36.227H105.991V195.626H453.771V36.227H446.525V189.588H113.237V36.227Z" fill="#CCDDFF"/>
<path d="M347.505 67.6238L301.617 113.511L347.505 159.399L393.392 113.511L347.505 67.6238Z" fill="#0000B2"/>
<path d="M347.505 67.6238V113.511H393.392L347.505 67.6238Z" fill="#DD5F00"/>
<path d="M347.505 159.399V113.511H393.392L347.505 159.399Z" fill="#FFBB33"/>
<path d="M347.505 159.399V113.511H301.617L347.505 159.399Z" fill="#6699FF"/>
<path d="M173.615 132.832L144.633 161.814L147.048 164.229L176.03 135.248L173.615 132.832Z" fill="#000080"/>
<path d="M178.445 128.002L207.427 156.984L205.012 159.399L176.03 130.417L178.445 128.002Z" fill="#000080"/>
<path d="M229.163 125.587L205.012 149.738L207.427 152.153L231.578 128.002L229.163 125.587Z" fill="#000080"/>
<path d="M142.218 159.399L149.464 166.644L156.709 159.399L149.464 152.154L142.218 159.399Z" fill="#FFBB33"/>
<path d="M171.2 130.417L178.445 137.663L185.691 130.417L178.445 123.172L171.2 130.417Z" fill="#DD5F00"/>
<path d="M195.351 154.569L202.597 161.814L209.842 154.569L202.597 147.323L195.351 154.569Z" fill="#DD5F00"/>
<path d="M221.918 128.002L229.163 135.248L236.408 128.002L229.163 120.757L221.918 128.002Z" fill="#FFBB33"/>
<path d="M149.464 101.436L142.218 94.1903H156.709H171.2L163.955 101.436L156.709 94.1903L149.464 101.436Z" fill="#6699FF"/>
<path d="M192.936 101.436L185.691 94.1903H200.182H214.672L207.427 101.436L200.182 94.1903L192.936 101.436Z" fill="#6699FF"/>
<path d="M398.223 154.569L390.977 147.323H405.468H419.959L412.713 154.569L405.468 147.323L398.223 154.569Z" fill="#6699FF"/>
<rect x="105.991" y="21.7362" width="347.779" height="16.9059" fill="#6699FF"/>
<path d="M105.991 50.7178V21.7362H134.973L105.991 50.7178Z" fill="#0000B2"/>
<path d="M453.771 50.7178V21.7362H424.789L453.771 50.7178Z" fill="#0000B2"/>
<path d="M105.991 166.644V195.626H134.973L105.991 166.644Z" fill="#0000B2"/>
<path d="M453.771 166.644V195.626H424.789L453.771 166.644Z" fill="#0000B2"/>
<rect x="265.39" y="195.626" width="14.4908" height="7.2454" fill="#DD5F00"/>
<path d="M151.879 70.0389L142.218 79.6994H224.333L233.993 70.0389H151.879Z" fill="#000080"/>
<path d="M400.638 70.0389L390.977 79.6994H417.544L427.204 70.0389H400.638Z" fill="#000080"/>
</g>
<path d="M19.6256 287.824L36.14 271.31V287.824H19.6256Z" fill="#0000B2"/>
<path d="M90.8587 287.824L74.3443 271.31V287.824H90.8587Z" fill="#0000B2"/>
<path d="M36.0324 208.275H27.7752V257.818H36.0324V208.275Z" fill="#FFBB33"/>
<path d="M36.0324 208.275L27.7752 216.532V208.275H36.0324Z" fill="#0000B2"/>
<path d="M74.3443 208.275H82.6015V257.818H74.3443V208.275Z" fill="#FEE94E"/>
<path d="M74.3443 208.275L82.6015 216.532V208.275H74.3443Z" fill="#6699FF"/>
<path d="M110.335 175.743L93.8035 192.274V159.211L110.335 175.743Z" fill="#FFBB33"/>
<path d="M0 175.795L16.5835 192.378V159.211L0 175.795Z" fill="#FEE94E"/>
<path d="M72.3485 114.721L55.5503 131.27V98.1722L72.3485 114.721Z" fill="#FEE94E"/>
<path d="M55.5503 98.1722V131.27L38.7522 114.721L55.5503 98.1722Z" fill="#FFBB33"/>
<path d="M55.883 142.302V175.344L22.453 142.302L39.168 125.781L55.883 142.302Z" fill="#0000FF"/>
<path d="M88.5098 142.295L55.481 175.324V142.295L71.9954 125.781L88.5098 142.295Z" fill="#6699FF"/>
<path d="M52.5468 183.983V200.497H27.7752V159.211L52.5468 183.983Z" fill="#6699FF"/>
<path d="M82.6504 159.211V200.497H57.8788V183.983L82.6504 159.211Z" fill="#0000FF"/>
<path d="M431.608 243.684V258.399H409.535V221.611L431.608 243.684Z" fill="#0000FF"/>
<path d="M453.682 221.611V258.399H431.61V243.684L453.682 221.611Z" fill="#000080"/>
<path d="M416.893 258.4H409.535V287.83H416.893V258.4Z" fill="#CCDDFF"/>
<path d="M402.178 287.831L416.893 273.116V287.831H402.178Z" fill="#000080"/>
<path d="M453.681 258.4H446.324V287.83H453.681V258.4Z" fill="#CCDDFF"/>
<path d="M416.893 258.4L409.535 265.757V258.4H416.893Z" fill="#000080"/>
<path d="M453.681 265.757L446.324 258.4H453.681V265.757Z" fill="#0000FF"/>
<path d="M446.324 273.116L461.039 287.831H446.324V273.116Z" fill="#0000FF"/>
<path d="M409.54 221.607L382.263 248.975L382.263 234.26L402.183 214.249L409.54 221.607Z" fill="#CCDDFF"/>
<path d="M453.682 221.593L480.959 248.975L480.959 234.26L461.04 214.236L453.682 221.593Z" fill="#CCDDFF"/>
<path d="M446.449 194.553L431.733 209.268V179.838L446.449 194.553Z" fill="#F4F4F4"/>
<path d="M431.733 179.838V209.268L417.018 194.553L431.733 179.838Z" fill="#CCDDFF"/>
<path d="M431.608 214.254V243.685L402.178 214.254L416.893 199.539L431.608 214.254Z" fill="#000080"/>
<path d="M461.04 214.254L431.61 243.685V214.254L446.325 199.539L461.04 214.254Z" fill="#0000FF"/>
<path d="M530.649 243.684V258.399H508.576V221.611L530.649 243.684Z" fill="#0000FF"/>
<path d="M552.723 221.611V258.399H530.651V243.684L552.723 221.611Z" fill="#000080"/>
<path d="M515.934 258.4H508.576V287.83H515.934V258.4Z" fill="#CCDDFF"/>
<path d="M501.218 287.831L515.934 273.116V287.831H501.218Z" fill="#000080"/>
<path d="M552.722 258.4H545.365V287.83H552.722V258.4Z" fill="#CCDDFF"/>
<path d="M515.934 258.4L508.576 265.757V258.4H515.934Z" fill="#000080"/>
<path d="M552.722 265.757L545.365 258.4H552.722V265.757Z" fill="#0000FF"/>
<path d="M545.365 273.116L560.08 287.831H545.365V273.116Z" fill="#0000FF"/>
<path d="M508.581 221.607L481.304 248.975L481.304 234.26L501.224 214.249L508.581 221.607Z" fill="#CCDDFF"/>
<path d="M552.723 221.593L580 248.975L580 234.26L560.081 214.236L552.723 221.593Z" fill="#CCDDFF"/>
<path d="M545.49 194.553L530.774 209.268V179.838L545.49 194.553Z" fill="#F4F4F4"/>
<path d="M530.774 179.838V209.268L516.059 194.553L530.774 179.838Z" fill="#CCDDFF"/>
<path d="M530.649 214.254V243.685L501.218 214.254L515.934 199.539L530.649 214.254Z" fill="#000080"/>
<path d="M560.081 214.254L530.651 243.685V214.254L545.366 199.539L560.081 214.254Z" fill="#0000FF"/>
<path d="M481.129 301.024V315.739H459.056V278.951L481.129 301.024Z" fill="#0000FF"/>
<path d="M503.203 278.951V315.739H481.13V301.024L503.203 278.951Z" fill="#000080"/>
<path d="M466.413 315.739H459.056V345.169H466.413V315.739Z" fill="#CCDDFF"/>
<path d="M451.698 345.17L466.413 330.455V345.17H451.698Z" fill="#000080"/>
<path d="M503.202 315.739H495.844V345.169H503.202V315.739Z" fill="#CCDDFF"/>
<path d="M466.413 315.739L459.056 323.097V315.739H466.413Z" fill="#000080"/>
<path d="M503.202 323.097L495.844 315.739H503.202V323.097Z" fill="#0000FF"/>
<path d="M495.844 330.455L510.56 345.17H495.844V330.455Z" fill="#0000FF"/>
<path d="M459.061 278.946L431.784 306.315L431.784 291.599L451.703 271.589L459.061 278.946Z" fill="#CCDDFF"/>
<path d="M503.202 278.933L530.479 306.315L530.479 291.599L510.56 271.575L503.202 278.933Z" fill="#CCDDFF"/>
<path d="M495.969 251.892L481.254 266.607V237.177L495.969 251.892Z" fill="#F4F4F4"/>
<path d="M481.253 237.177V266.607L466.538 251.892L481.253 237.177Z" fill="#CCDDFF"/>
<path d="M481.128 271.594V301.024L451.698 271.594L466.413 256.879L481.128 271.594Z" fill="#000080"/>
<path d="M510.56 271.594L481.13 301.024V271.594L495.845 256.879L510.56 271.594Z" fill="#0000FF"/>
</svg>
